<?xml version="1.0" encoding="UTF-8"?>
<svg width="257px" height="233px" viewBox="0 0 257 233" version="1.1" xmlns="http://www.w3.org/2000/svg" xmlns:xlink="http://www.w3.org/1999/xlink">
    <!-- Generator: Sketch 52.2 (67145) - http://www.bohemiancoding.com/sketch -->
    <title>full_logo</title>
    <desc>Created with Sketch.</desc>
    <g id="Page-2" stroke="none" stroke-width="1" fill="none" fill-rule="evenodd">
        <g id="full_logo">
            <rect id="Rectangle" fill="#F7F7F7" x="0" y="0" width="257" height="233"></rect>
            <g id="ivan_logo" transform="translate(7.000000, 73.000000)" fill="#000000">
                <rect id="Rectangle" transform="translate(67.000000, 69.000000) rotate(90.000000) translate(-67.000000, -69.000000) " x="60" y="45" width="14" height="48"></rect>
                <rect id="Rectangle" x="0" y="1" width="14" height="108.4"></rect>
                <rect id="Rectangle" x="138" y="0.2" width="14" height="109"></rect>
                <rect id="Rectangle" x="16" y="1" width="14" height="108.4"></rect>
                <rect id="Rectangle" x="77" y="0" width="14" height="109"></rect>
                <rect id="Rectangle" transform="translate(53.562178, 54.801270) rotate(30.000000) translate(-53.562178, -54.801270) " x="46.5621778" y="-4.19872981" width="14" height="118"></rect>
                <rect id="Rectangle" transform="translate(114.562178, 54.595499) scale(-1, 1) rotate(30.000000) translate(-114.562178, -54.595499) " x="107.562178" y="-4.40450118" width="14" height="118"></rect>
            </g>
            <g id="Heibi" transform="translate(149.500000, 116.000000) scale(-1, -1) rotate(90.000000) translate(-149.500000, -116.000000) translate(38.500000, 17.500000)">
                <g id="I(middle)" transform="translate(126.000000, 119.000000)" fill="#000000">
                    <rect id="Rectangle" x="0" y="13" width="30" height="6"></rect>
                    <rect id="Rectangle" transform="translate(27.000000, 9.500000) rotate(90.000000) translate(-27.000000, -9.500000) " x="17.5" y="6.5" width="19" height="6"></rect>
                    <circle id="Oval" cx="6.5" cy="26.5" r="3.5"></circle>
                    <circle id="Oval" cx="18.5" cy="26.5" r="3.5"></circle>
                </g>
                <g id="B" transform="translate(85.000000, 119.000000)" fill="#000000">
                    <rect id="Rectangle" x="0" y="13" width="42" height="6"></rect>
                    <rect id="Rectangle" transform="translate(39.000000, 9.500000) rotate(90.000000) translate(-39.000000, -9.500000) " x="29.5" y="6.5" width="19" height="6"></rect>
                    <circle id="Oval" cx="24.5" cy="26.5" r="3.5"></circle>
                </g>
                <g id="H" transform="translate(156.000000, 83.000000)">
                    <path d="M47.5,-17.4726184 L47.5,-11.2975019 C38.2203351,-8.0140893 31.5,1.62284082 31.5,13 C31.5,24.3771592 38.2203351,34.0140893 47.5,37.2975019 L47.5,41.4726184 C47.1684366,41.4908109 46.8350549,41.5 46.5,41.5 C33.7974508,41.5 23.5,28.2924001 23.5,12 C23.5,-4.29240012 33.7974508,-17.5 46.5,-17.5 C46.8350549,-17.5 47.1684366,-17.4908109 47.5,-17.4726184 Z" id="Combined-Shape" fill="#000000" transform="translate(35.500000, 12.000000) rotate(90.000000) translate(-35.500000, -12.000000) "></path>
                    <path d="M35,54.996763 L35,46.9956669 C46.1587806,46.8021038 55.5622985,40.143415 58.7975019,31 L64.9726184,31 C64.9908109,31.3315634 65,31.6649451 65,32 C65,44.7025492 51.7924001,55 35.5,55 C35.3330056,55 35.1663353,54.9989182 35,54.996763 Z" id="Combined-Shape" fill="#000000"></path>
                    <rect id="Rectangle" fill="#000000" x="0" y="49" width="36" height="6"></rect>
                    <rect id="Rectangle" fill="#000000" transform="translate(62.500000, 27.500000) rotate(90.000000) translate(-62.500000, -27.500000) " x="59" y="25" width="7" height="5"></rect>
                    <ellipse id="Oval" fill="#000000" cx="61" cy="27.5" rx="5" ry="13.5"></ellipse>
                    <ellipse id="Oval" fill="#F7F7F7" cx="34.5" cy="28.5" rx="26.5" ry="20.5"></ellipse>
                    <path d="M36.5,55 C27.3873016,55 20,47.6126984 20,38.5 C20,29.3873016 27.3873016,22 36.5,22 C45.6126984,22 53,29.3873016 53,38.5 C53,47.6126984 45.6126984,55 36.5,55 Z M35.5,49 C41.8512746,49 47,43.8512746 47,37.5 C47,31.1487254 41.8512746,26 35.5,26 C29.1487254,26 24,31.1487254 24,37.5 C24,43.8512746 29.1487254,49 35.5,49 Z" id="Combined-Shape" fill="#000000"></path>
                </g>
                <path d="M83,167.171573 C75.905158,164.12217 71,157.57936 71,150 C71,139.50659 80.4020203,131 92,131 C98.0397781,131 103.484029,133.306921 107.315067,137 L99.436048,137 C97.5940438,136.354107 95.5925103,136 93.5,136 C84.3873016,136 77,142.715729 77,151 C77,155.65801 79.33549,159.820126 83,162.571376 L83,167.171573 Z" id="Combined-Shape" fill="#000000"></path>
                <path d="M68.2528071,191.701977 C61.0778532,189.148757 56.157815,183.908218 56.157815,177.858061 C56.157815,169.297647 66.0075505,162.358061 78.157815,162.358061 C84.2244861,162.358061 89.7176258,164.088128 93.6975208,166.886192 L82.2741051,166.886192 C81.3225699,166.771777 80.3449654,166.712215 79.3478847,166.712215 C69.6829016,166.712215 61.8478847,172.308656 61.8478847,179.212215 C61.8478847,183.107617 64.3424699,186.586846 68.2528071,188.879308 L68.2528071,191.701977 Z" id="Combined-Shape" fill="#000000" transform="translate(74.927668, 177.030019) rotate(165.000000) translate(-74.927668, -177.030019) "></path>
                <path d="M83,167.171573 C84.3081398,167.794643 85.3506258,168.672641 86.1274579,169.805564 C86.90429,170.938487 87.4612297,172.393069 87.7982771,174.16931 L87.798265,168.00124 L83,166 L83,167.171573 Z" id="Path" fill="#000000"></path>
                <g id="Group" transform="translate(22.500000, 94.060038) rotate(90.000000) translate(-22.500000, -94.060038) translate(-71.500000, 71.560038)">
                    <ellipse id="Oval" fill="#000000" cx="94.4399621" cy="20.5" rx="93.5" ry="14.5"></ellipse>
                    <ellipse id="Oval" fill="#F7F7F7" cx="94.4399621" cy="14.5" rx="93.5" ry="14.5"></ellipse>
                    <ellipse id="Oval" fill="#000000" cx="126.939962" cy="41.5" rx="3" ry="3.5"></ellipse>
                    <ellipse id="Oval" fill="#000000" cx="57.9399621" cy="41.5" rx="3" ry="3.5"></ellipse>
                </g>
            </g>
            <path d="M223.358848,139.766351 C219.951645,145.754543 217.663488,156.85335 217.663488,169.555439 C217.663488,188.609263 222.812213,204.055439 229.163488,204.055439 C235.514763,204.055439 240.663488,188.609263 240.663488,169.555439 C240.663488,156.106886 238.098493,144.455592 234.356078,138.764287 C243.846942,142.128093 250.966631,156.177574 250.966631,172.998543 C250.966631,192.328509 241.56461,207.998543 229.966631,207.998543 C218.368651,207.998543 208.966631,192.328509 208.966631,172.998543 C208.966631,157.516143 214.998272,144.381686 223.358848,139.766351 Z" id="Combined-Shape" fill="#000000" transform="translate(229.966631, 173.381415) rotate(5.000000) translate(-229.966631, -173.381415) "></path>
            <ellipse id="Oval" fill="#F7F7F7" cx="227.5" cy="170.423077" rx="16.5" ry="32.4230769"></ellipse>
            <path d="M203.873777,156.262004 C205.33861,156.143314 206.424678,155.999539 207.131981,155.830679 C207.839283,155.661819 208.79529,155.318074 210,154.799443 L213.250591,152.883362 L215.075703,151.258055 L234.368958,196.35449 C233.144307,198.884627 231.426946,200.815711 229.216873,202.147744 C227.0068,203.479778 223.728184,204.597756 219.381025,205.50168 L197.388206,196.696297 L203.873777,156.262004 Z" id="Path-2" fill="#F7F7F7"></path>
            <path d="M225.80914,133.799342 L250.493566,160.303838 C249.72025,157.595756 249.133089,155.697422 248.732085,154.608834 C247.178172,150.390495 245.678291,147.649786 244.477048,145.906626 C243.257085,144.136301 241.524442,141.733514 239.455906,139.876437 C237.286608,137.928899 234.776611,136.548308 233.368958,135.659752 C231.535676,134.502525 229.015736,133.882388 225.80914,133.799342 Z" id="Path-3" fill="#000000"></path>
            <path d="M249.536249,176 C249.103965,179.495025 248.724732,181.969636 248.39855,183.423835 C247.142767,189.022427 245.700489,192.882235 244.732085,195.326786 C243.386377,198.723772 241.271449,201.695591 238.387304,204.242241 L238.387304,198.810014 L249.536249,176 Z" id="Path-4" fill="#000000"></path>
            <path d="M232.818591,201.117513 C233.494419,201.284875 232.755976,201.685842 230.603261,202.320412 C228.450546,202.954982 223.674325,204.179611 216.2746,205.994297 L229.935745,204.242241 L232.818591,201.117513 Z" id="Path-5" fill="#000000"></path>
            <path d="M230.011597,138.36467 L233.459329,142.467798 L239.877764,148.887567 C237.642111,145.28561 235.805842,142.778052 234.368958,141.364894 C232.932073,139.951736 231.479619,138.951661 230.011597,138.36467 Z" id="Path-6" fill="#FFFFFF"></path>
            <path d="M250.493566,162.193787 C250.509588,162.301659 250.525782,162.444142 250.542149,162.621235 C250.554969,162.759945 250.559379,163.015931 250.578893,163.22707 C250.635777,163.842559 250.69183,164.449055 250.747052,165.046559 L250.029887,163.007172 L250.104294,160.95546 C250.160995,161.113485 250.212595,161.270519 250.259094,161.426559 C250.291953,161.536825 250.353875,161.698032 250.41835,161.944504 C250.436194,162.012717 250.461266,162.095812 250.493566,162.193787 Z" id="Path-7" fill="#000000"></path>
        </g>
    </g>
</svg>