<?xml version="1.0" encoding="UTF-8"?>
<svg width="249px" height="284px" viewBox="0 0 249 284" version="1.1" xmlns="http://www.w3.org/2000/svg" xmlns:xlink="http://www.w3.org/1999/xlink">
    <!-- Generator: Sketch 52.2 (67145) - http://www.bohemiancoding.com/sketch -->
    <title>cv_europass</title>
    <desc>Created with Sketch.</desc>
    <g id="Page-6" stroke="none" stroke-width="1" fill="none" fill-rule="evenodd">
        <g id="cv_europass" transform="translate(1.000000, 1.000000)" stroke="#000000">
            <path d="M97.41,112.03 C96.3899949,112.936671 94.775011,113.928328 92.565,115.005 C90.3549889,116.081672 87.6916822,117.044996 84.575,117.895 C81.4583177,118.745004 77.9733526,119.509997 74.12,120.19 C70.2666474,120.870003 66.2433543,121.21 62.05,121.21 C53.0966219,121.21 44.8233713,119.935013 37.23,117.385 C29.6366287,114.834987 23.0916941,110.953359 17.595,105.74 C12.0983058,100.526641 7.79168225,94.1517044 4.675,86.615 C1.55831775,79.0782957 -1.13686838e-13,70.4933815 -1.13686838e-13,60.86 C-1.13686838e-13,51.2266185 1.55831775,42.6417044 4.675,35.105 C7.79168225,27.5682957 12.1549719,21.1933594 17.765,15.98 C23.375028,10.7666406 30.0899609,6.8000136 37.91,4.08 C45.7300391,1.3599864 54.3432863,-7.10542736e-15 63.75,-7.10542736e-15 C71.2300374,-7.10542736e-15 78.0583024,0.76499235 84.235,2.295 C90.4116975,3.82500765 95.8799762,5.6666559 100.64,7.82 C99.7333288,9.4066746 98.9966695,11.5599864 98.43,14.28 C97.8633305,17.0000136 97.4100017,19.2666576 97.07,21.08 L96.05,21.42 C94.916661,20.0599932 93.3300102,18.5300085 91.29,16.83 C89.2499898,15.1299915 86.8700136,13.4866746 84.15,11.9 C81.4299864,10.3133254 78.370017,8.98167205 74.97,7.905 C71.569983,6.82832795 67.8300204,6.29 63.75,6.29 C57.0632999,6.29 50.8583619,7.3666559 45.135,9.52 C39.411638,11.6733441 34.4250212,14.988311 30.175,19.465 C25.9249787,23.9416891 22.6100119,29.608299 20.23,36.465 C17.8499881,43.321701 16.66,51.4532863 16.66,60.86 C16.66,70.2667137 17.8499881,78.3982991 20.23,85.255 C22.6100119,92.1117009 25.9249787,97.778311 30.175,102.255 C34.4250212,106.731689 39.411638,110.046656 45.135,112.2 C50.8583619,114.353344 57.0632999,115.43 63.75,115.43 C67.8300204,115.43 71.598316,114.920005 75.055,113.9 C78.5116839,112.879995 81.6849855,111.661674 84.575,110.245 C87.4650144,108.828326 90.071655,107.298342 92.395,105.655 C94.7183449,104.011658 96.6733254,102.566673 98.26,101.32 L98.94,102 L97.41,112.03 Z M156.57,119 C153.96332,112.3133 150.790019,104.266714 147.05,94.86 C143.309981,85.4532863 139.315021,75.5367188 135.065,65.11 C130.814979,54.6832812 126.451689,44.0300544 121.975,33.15 C117.498311,22.2699456 113.22002,11.9567154 109.14,2.21 C110.726675,2.4366678 112.256659,2.63499915 113.73,2.805 C115.203341,2.97500085 116.619993,3.06 117.98,3.06 C119.340007,3.06 120.756659,2.97500085 122.23,2.805 C123.703341,2.63499915 125.233325,2.4366678 126.82,2.21 C129.313346,9.6900374 132.061652,17.5382923 135.065,25.755 C138.068348,33.9717078 141.24165,42.3299575 144.585,50.83 C147.92835,59.3300425 151.356649,67.9432897 154.87,76.67 C158.383351,85.3967103 161.953315,94.0666236 165.58,102.68 C167.62001,98.0333101 169.829988,92.848362 172.21,87.125 C174.590012,81.4016381 176.998321,75.4516976 179.435,69.275 C181.871679,63.0983025 184.279988,56.8083654 186.66,50.405 C189.040012,44.0016347 191.334989,37.8533628 193.545,31.96 C195.755011,26.0666372 197.766658,20.5700255 199.58,15.47 C201.393342,10.3699745 202.923327,5.9500187 204.17,2.21 C206.663346,2.7766695 208.759991,3.06 210.46,3.06 C212.160008,3.06 214.256654,2.7766695 216.75,2.21 C207.909956,21.9300986 199.410041,41.4799031 191.25,60.86 C183.089959,80.2400969 175.270037,99.6199031 167.79,119 C165.976658,118.773332 164.106676,118.66 162.18,118.66 C159.913322,118.66 158.043341,118.773332 156.57,119 Z M90.32,247.32 C90.32,245.559991 90.286667,243.826675 90.22,242.12 C90.153333,240.413325 90.0800004,238.706675 90,237 C91.200006,237.053334 92.3933274,237.1 93.58,237.14 C94.7666726,237.18 95.959994,237.2 97.16,237.2 C98.360006,237.2 99.5466608,237.18 100.72,237.14 C101.893339,237.1 103.079994,237.053334 104.28,237 C104.2,237.400002 104.16,237.799998 104.16,238.2 C104.16,238.600002 104.2,238.999998 104.28,239.4 C103.426662,239.346666 102.64667,239.293334 101.94,239.24 C101.23333,239.186666 100.486671,239.133334 99.7,239.08 C98.9133294,239.026666 98.053338,238.98 97.12,238.94 C96.186662,238.9 95.0666732,238.88 93.76,238.88 C93.7333332,239.733338 93.7000002,240.546663 93.66,241.32 C93.6199998,242.093337 93.6,242.973328 93.6,243.96 C93.6,245.000005 93.6066666,246.013328 93.62,247 C93.6333334,247.986672 93.64,248.733331 93.64,249.24 C94.8133392,249.24 95.866662,249.226667 96.8,249.2 C97.733338,249.173333 98.5866628,249.14 99.36,249.1 C100.133337,249.06 100.846663,249.02 101.5,248.98 C102.153337,248.94 102.77333,248.893334 103.36,248.84 C103.28,249.240002 103.24,249.653331 103.24,250.08 C103.24,250.480002 103.28,250.879998 103.36,251.28 C102.666663,251.2 101.860005,251.133334 100.94,251.08 C100.019995,251.026666 99.1000046,250.993333 98.18,250.98 C97.2599954,250.966667 96.3933374,250.953333 95.58,250.94 C94.7666626,250.926667 94.1200024,250.92 93.64,250.92 C93.64,251.160001 93.6333334,251.419999 93.62,251.7 C93.6066666,251.980001 93.6,252.333331 93.6,252.76 L93.6,254.32 L93.6,256.72 C93.6,258.240008 93.6066666,259.493328 93.62,260.48 C93.6333334,261.466672 93.6533332,262.213331 93.68,262.72 C94.5600044,262.72 95.4933284,262.72 96.48,262.72 C97.4933384,262.72 98.4866618,262.7 99.46,262.66 C100.433338,262.62 101.353329,262.566667 102.22,262.5 C103.086671,262.433333 103.839997,262.333334 104.48,262.2 C104.426666,262.386668 104.393333,262.593332 104.38,262.82 C104.366667,263.046668 104.36,263.253332 104.36,263.44 C104.36,263.866669 104.4,264.213332 104.48,264.48 C103.279994,264.426666 102.086673,264.4 100.9,264.4 C99.7133274,264.4 98.5066728,264.4 97.28,264.4 C96.0533272,264.4 94.840006,264.4 93.64,264.4 C92.439994,264.4 91.2266728,264.426666 90,264.48 C90.0800004,262.773325 90.153333,261.073342 90.22,259.38 C90.286667,257.686658 90.32,255.960009 90.32,254.2 L90.32,247.32 Z M109.44,258.44 C109.44,257.02666 109.46,255.820005 109.5,254.82 C109.54,253.819995 109.56,252.826672 109.56,251.84 C109.56,250.906662 109.553333,249.893339 109.54,248.8 C109.526667,247.706661 109.506667,246.600006 109.48,245.48 C110.14667,245.613334 110.706664,245.68 111.16,245.68 C111.586669,245.68 112.13333,245.613334 112.8,245.48 C112.666666,247.080008 112.566667,248.833324 112.5,250.74 C112.433333,252.646676 112.4,254.59999 112.4,256.6 C112.4,257.986674 112.519999,259.046663 112.76,259.78 C113.000001,260.513337 113.293332,261.066665 113.64,261.44 C114.013335,261.866669 114.486664,262.219999 115.06,262.5 C115.633336,262.780001 116.306663,262.92 117.08,262.92 C118.200006,262.92 119.13333,262.673336 119.88,262.18 C120.62667,261.686664 121.173332,261.080004 121.52,260.36 C121.706668,259.906664 121.853333,259.520002 121.96,259.2 C122.066667,258.879998 122.153333,258.453336 122.22,257.92 C122.286667,257.386664 122.326667,256.666671 122.34,255.76 C122.353333,254.853329 122.36,253.613341 122.36,252.04 L122.36,248.68 C122.36,248.09333 122.353333,247.533336 122.34,247 C122.326667,246.466664 122.306667,245.960002 122.28,245.48 C122.573335,245.533334 122.853332,245.58 123.12,245.62 C123.386668,245.66 123.666665,245.68 123.96,245.68 C124.253335,245.68 124.533332,245.66 124.8,245.62 C125.066668,245.58 125.333332,245.533334 125.6,245.48 C125.466666,247.56001 125.386667,249.566657 125.36,251.5 C125.333333,253.433343 125.32,255.479989 125.32,257.64 C125.32,258.840006 125.333333,260.013328 125.36,261.16 C125.386667,262.306672 125.426666,263.413328 125.48,264.48 C124.946664,264.426666 124.426669,264.4 123.92,264.4 C123.413331,264.4 122.893336,264.426666 122.36,264.48 C122.386667,264.239999 122.406667,263.986668 122.42,263.72 C122.433333,263.453332 122.44,263.173335 122.44,262.88 L122.44,261.16 L122.36,261.16 C121.666663,262.440006 120.773339,263.379997 119.68,263.98 C118.586661,264.580003 117.400006,264.88 116.12,264.88 C114.03999,264.88 112.406673,264.326672 111.22,263.22 C110.033327,262.113328 109.44,260.52001 109.44,258.44 Z M140.84,248.76 C140.706666,248.599999 140.446669,248.453334 140.06,248.32 C139.673331,248.186666 139.280002,248.12 138.88,248.12 C138.239997,248.12 137.666669,248.266665 137.16,248.56 C136.653331,248.853335 136.226668,249.246664 135.88,249.74 C135.533332,250.233336 135.266668,250.819997 135.08,251.5 C134.893332,252.180003 134.8,252.906663 134.8,253.68 L134.8,258.08 C134.8,259.866676 134.806667,261.233329 134.82,262.18 C134.833333,263.126671 134.88,263.89333 134.96,264.48 C134.426664,264.426666 133.893336,264.4 133.36,264.4 C132.77333,264.4 132.213336,264.426666 131.68,264.48 C131.76,263.573329 131.806667,262.340008 131.82,260.78 C131.833333,259.219992 131.84,257.306678 131.84,255.04 L131.84,253.76 C131.84,252.719995 131.833333,251.520007 131.82,250.16 C131.806667,248.799993 131.76,247.240009 131.68,245.48 C131.973335,245.533334 132.253332,245.58 132.52,245.62 C132.786668,245.66 133.066665,245.68 133.36,245.68 C133.600001,245.68 133.853332,245.66 134.12,245.62 C134.386668,245.58 134.666665,245.533334 134.96,245.48 C134.853333,246.440005 134.793333,247.199997 134.78,247.76 C134.766667,248.320003 134.76,248.853331 134.76,249.36 L134.84,249.4 C136.413341,246.519986 138.173324,245.08 140.12,245.08 C140.360001,245.08 140.566666,245.093333 140.74,245.12 C140.913334,245.146667 141.133332,245.213333 141.4,245.32 C141.266666,245.640002 141.186667,246.126663 141.16,246.78 C141.133333,247.433337 141.12,248.026664 141.12,248.56 L140.84,248.76 Z M146.88,255.04 C146.88,256.160006 146.979999,257.239995 147.18,258.28 C147.380001,259.320005 147.719998,260.246663 148.2,261.06 C148.680002,261.873337 149.319996,262.519998 150.12,263 C150.920004,263.480002 151.906661,263.72 153.08,263.72 C154.253339,263.72 155.239996,263.480002 156.04,263 C156.840004,262.519998 157.479998,261.873337 157.96,261.06 C158.440002,260.246663 158.779999,259.320005 158.98,258.28 C159.180001,257.239995 159.28,256.160006 159.28,255.04 C159.28,253.919994 159.180001,252.840005 158.98,251.8 C158.779999,250.759995 158.440002,249.833337 157.96,249.02 C157.479998,248.206663 156.840004,247.560002 156.04,247.08 C155.239996,246.599998 154.253339,246.36 153.08,246.36 C151.906661,246.36 150.920004,246.599998 150.12,247.08 C149.319996,247.560002 148.680002,248.206663 148.2,249.02 C147.719998,249.833337 147.380001,250.759995 147.18,251.8 C146.979999,252.840005 146.88,253.919994 146.88,255.04 Z M143.36,255.04 C143.36,253.226658 143.646664,251.686673 144.22,250.42 C144.793336,249.153327 145.546662,248.126671 146.48,247.34 C147.413338,246.553329 148.459994,245.980002 149.62,245.62 C150.780006,245.259998 151.933328,245.08 153.08,245.08 C154.253339,245.08 155.413328,245.259998 156.56,245.62 C157.706672,245.980002 158.746662,246.553329 159.68,247.34 C160.613338,248.126671 161.366664,249.153327 161.94,250.42 C162.513336,251.686673 162.8,253.226658 162.8,255.04 C162.8,256.853342 162.513336,258.393327 161.94,259.66 C161.366664,260.926673 160.613338,261.953329 159.68,262.74 C158.746662,263.526671 157.706672,264.079998 156.56,264.4 C155.413328,264.720002 154.253339,264.88 153.08,264.88 C151.933328,264.88 150.780006,264.720002 149.62,264.4 C148.459994,264.079998 147.413338,263.526671 146.48,262.74 C145.546662,261.953329 144.793336,260.926673 144.22,259.66 C143.646664,258.393327 143.36,256.853342 143.36,255.04 Z M166.8,257.12 C166.8,256.213329 166.793333,255.226672 166.78,254.16 C166.766667,253.093328 166.746667,252.033339 166.72,250.98 C166.693333,249.926661 166.66,248.920005 166.62,247.96 C166.58,246.999995 166.533334,246.173337 166.48,245.48 C167.22667,245.613334 167.826664,245.68 168.28,245.68 C168.733336,245.68 169.33333,245.613334 170.08,245.48 C169.973333,246.173337 169.893334,246.839997 169.84,247.48 C169.786666,248.120003 169.76,248.759997 169.76,249.4 L169.84,249.4 C170.026668,248.973331 170.293332,248.513336 170.64,248.02 C170.986668,247.526664 171.433331,247.060002 171.98,246.62 C172.526669,246.179998 173.186663,245.813335 173.96,245.52 C174.733337,245.226665 175.613328,245.08 176.6,245.08 C177.613338,245.08 178.613328,245.273331 179.6,245.66 C180.586672,246.046669 181.459996,246.639996 182.22,247.44 C182.980004,248.240004 183.593331,249.259994 184.06,250.5 C184.526669,251.740006 184.76,253.213325 184.76,254.92 C184.76,256.626675 184.506669,258.10666 184,259.36 C183.493331,260.61334 182.833337,261.653329 182.02,262.48 C181.206663,263.306671 180.280005,263.913331 179.24,264.3 C178.199995,264.686669 177.160005,264.88 176.12,264.88 C173.186652,264.88 171.09334,263.613346 169.84,261.08 L169.76,261.08 L169.76,263.6 C169.76,264.453338 169.766667,265.406661 169.78,266.46 C169.793333,267.513339 169.813333,268.559995 169.84,269.6 C169.866667,270.640005 169.9,271.633329 169.94,272.58 C169.98,273.526671 170.026666,274.33333 170.08,275 C169.33333,274.866666 168.733336,274.8 168.28,274.8 C167.826664,274.8 167.22667,274.866666 166.48,275 C166.533334,274.33333 166.58,273.526671 166.62,272.58 C166.66,271.633329 166.693333,270.640005 166.72,269.6 C166.746667,268.559995 166.766667,267.513339 166.78,266.46 C166.793333,265.406661 166.8,264.453338 166.8,263.6 L166.8,257.12 Z M181.24,254.88 C181.24,253.279992 181.073335,251.960005 180.74,250.92 C180.406665,249.879995 179.980003,249.04667 179.46,248.42 C178.939997,247.79333 178.34667,247.360001 177.68,247.12 C177.01333,246.879999 176.360003,246.76 175.72,246.76 C174.653328,246.76 173.740004,246.986664 172.98,247.44 C172.219996,247.893336 171.600002,248.499996 171.12,249.26 C170.639998,250.020004 170.293334,250.913328 170.08,251.94 C169.866666,252.966672 169.76,254.053328 169.76,255.2 C169.76,260.746694 171.706647,263.52 175.6,263.52 C176.560005,263.52 177.39333,263.300002 178.1,262.86 C178.80667,262.419998 179.393331,261.806671 179.86,261.02 C180.326669,260.233329 180.673332,259.313339 180.9,258.26 C181.126668,257.206661 181.24,256.080006 181.24,254.88 Z M199.76,254.52 C199.306664,254.680001 198.780003,254.813333 198.18,254.92 C197.579997,255.026667 196.973336,255.139999 196.36,255.26 C195.746664,255.380001 195.140003,255.533332 194.54,255.72 C193.939997,255.906668 193.406669,256.159998 192.94,256.48 C192.473331,256.800002 192.100001,257.199998 191.82,257.68 C191.539999,258.160002 191.4,258.77333 191.4,259.52 C191.4,260.77334 191.759996,261.719997 192.48,262.36 C193.200004,263.000003 193.999996,263.32 194.88,263.32 C195.893338,263.32 196.819996,263.040003 197.66,262.48 C198.500004,261.919997 199.146664,261.26667 199.6,260.52 L199.76,254.52 Z M189.88,247.4 C191.080006,246.493329 192.186662,245.880002 193.2,245.56 C194.213338,245.239998 195.253328,245.08 196.32,245.08 C197.280005,245.08 198.159996,245.219999 198.96,245.5 C199.760004,245.780001 200.439997,246.179997 201,246.7 C201.560003,247.220003 201.999998,247.846663 202.32,248.58 C202.640002,249.313337 202.8,250.119996 202.8,251 C202.8,252.520008 202.773334,254.033326 202.72,255.54 C202.666666,257.046674 202.64,258.639992 202.64,260.32 C202.64,260.640002 202.646667,260.979998 202.66,261.34 C202.673333,261.700002 202.733333,262.019999 202.84,262.3 C202.946667,262.580001 203.099999,262.813332 203.3,263 C203.500001,263.186668 203.799998,263.28 204.2,263.28 C204.333334,263.28 204.473333,263.273333 204.62,263.26 C204.766667,263.246667 204.906666,263.2 205.04,263.12 L205.04,264 C204.746665,264.133334 204.380002,264.24 203.94,264.32 C203.499998,264.4 203.013336,264.44 202.48,264.44 C201.626662,264.44 200.973336,264.220002 200.52,263.78 C200.066664,263.339998 199.8,262.773337 199.72,262.08 C198.759995,263.040005 197.813338,263.746664 196.88,264.2 C195.946662,264.653336 194.800007,264.88 193.44,264.88 C192.77333,264.88 192.120003,264.786668 191.48,264.6 C190.839997,264.413332 190.273336,264.106669 189.78,263.68 C189.286664,263.253331 188.886668,262.740003 188.58,262.14 C188.273332,261.539997 188.12,260.853337 188.12,260.08 C188.12,258.479992 188.619995,257.240004 189.62,256.36 C190.620005,255.479996 191.999991,254.893335 193.76,254.6 C195.200007,254.359999 196.326663,254.153334 197.14,253.98 C197.953337,253.806666 198.553331,253.626668 198.94,253.44 C199.326669,253.253332 199.56,253.033335 199.64,252.78 C199.72,252.526665 199.76,252.200002 199.76,251.8 C199.76,251.13333 199.680001,250.493336 199.52,249.88 C199.359999,249.266664 199.106668,248.733336 198.76,248.28 C198.413332,247.826664 197.960003,247.460001 197.4,247.18 C196.839997,246.899999 196.160004,246.76 195.36,246.76 C194.293328,246.76 193.300005,246.999998 192.38,247.48 C191.459995,247.960002 190.773336,248.626662 190.32,249.48 L189.88,249.48 L189.88,247.4 Z M209.28,260.76 C209.413334,261.026668 209.619999,261.319998 209.9,261.64 C210.180001,261.960002 210.513331,262.259999 210.9,262.54 C211.286669,262.820001 211.726664,263.053332 212.22,263.24 C212.713336,263.426668 213.239997,263.52 213.8,263.52 C214.306669,263.52 214.793331,263.440001 215.26,263.28 C215.726669,263.119999 216.139998,262.893335 216.5,262.6 C216.860002,262.306665 217.146666,261.933336 217.36,261.48 C217.573334,261.026664 217.68,260.50667 217.68,259.92 C217.68,259.093329 217.446669,258.460002 216.98,258.02 C216.513331,257.579998 215.933337,257.220001 215.24,256.94 C214.546663,256.659999 213.786671,256.413334 212.96,256.2 C212.133329,255.986666 211.373337,255.686669 210.68,255.3 C209.986663,254.913331 209.406669,254.400003 208.94,253.76 C208.473331,253.119997 208.24,252.240006 208.24,251.12 C208.24,250.239996 208.386665,249.433337 208.68,248.7 C208.973335,247.966663 209.399997,247.333336 209.96,246.8 C210.520003,246.266664 211.213329,245.846668 212.04,245.54 C212.866671,245.233332 213.813328,245.08 214.88,245.08 C215.866672,245.08 216.699997,245.213332 217.38,245.48 C218.060003,245.746668 218.706664,245.986666 219.32,246.2 C219.106666,246.600002 218.906668,247.09333 218.72,247.68 C218.533332,248.26667 218.413334,248.719998 218.36,249.04 L217.88,249.04 C217.666666,248.399997 217.253336,247.826669 216.64,247.32 C216.026664,246.813331 215.266671,246.56 214.36,246.56 C213.959998,246.56 213.560002,246.626666 213.16,246.76 C212.759998,246.893334 212.400002,247.093332 212.08,247.36 C211.759998,247.626668 211.493334,247.973331 211.28,248.4 C211.066666,248.826669 210.96,249.33333 210.96,249.92 C210.96,250.773338 211.193331,251.433331 211.66,251.9 C212.126669,252.366669 212.706663,252.733332 213.4,253 C214.093337,253.266668 214.853329,253.499999 215.68,253.7 C216.506671,253.900001 217.266663,254.179998 217.96,254.54 C218.653337,254.900002 219.233331,255.399997 219.7,256.04 C220.166669,256.680003 220.4,257.559994 220.4,258.68 C220.4,259.453337 220.233335,260.21333 219.9,260.96 C219.566665,261.70667 219.08667,262.379997 218.46,262.98 C217.83333,263.580003 217.080004,264.046665 216.2,264.38 C215.319996,264.713335 214.320006,264.88 213.2,264.88 C211.973327,264.88 210.946671,264.760001 210.12,264.52 C209.293329,264.279999 208.600003,264.000002 208.04,263.68 C208.200001,263.333332 208.366666,262.860003 208.54,262.26 C208.713334,261.659997 208.8,261.160002 208.8,260.76 L209.28,260.76 Z M224.84,260.76 C224.973334,261.026668 225.179999,261.319998 225.46,261.64 C225.740001,261.960002 226.073331,262.259999 226.46,262.54 C226.846669,262.820001 227.286664,263.053332 227.78,263.24 C228.273336,263.426668 228.799997,263.52 229.36,263.52 C229.866669,263.52 230.353331,263.440001 230.82,263.28 C231.286669,263.119999 231.699998,262.893335 232.06,262.6 C232.420002,262.306665 232.706666,261.933336 232.92,261.48 C233.133334,261.026664 233.24,260.50667 233.24,259.92 C233.24,259.093329 233.006669,258.460002 232.54,258.02 C232.073331,257.579998 231.493337,257.220001 230.8,256.94 C230.106663,256.659999 229.346671,256.413334 228.52,256.2 C227.693329,255.986666 226.933337,255.686669 226.24,255.3 C225.546663,254.913331 224.966669,254.400003 224.5,253.76 C224.033331,253.119997 223.8,252.240006 223.8,251.12 C223.8,250.239996 223.946665,249.433337 224.24,248.7 C224.533335,247.966663 224.959997,247.333336 225.52,246.8 C226.080003,246.266664 226.773329,245.846668 227.6,245.54 C228.426671,245.233332 229.373328,245.08 230.44,245.08 C231.426672,245.08 232.259997,245.213332 232.94,245.48 C233.620003,245.746668 234.266664,245.986666 234.88,246.2 C234.666666,246.600002 234.466668,247.09333 234.28,247.68 C234.093332,248.26667 233.973334,248.719998 233.92,249.04 L233.44,249.04 C233.226666,248.399997 232.813336,247.826669 232.2,247.32 C231.586664,246.813331 230.826671,246.56 229.92,246.56 C229.519998,246.56 229.120002,246.626666 228.72,246.76 C228.319998,246.893334 227.960002,247.093332 227.64,247.36 C227.319998,247.626668 227.053334,247.973331 226.84,248.4 C226.626666,248.826669 226.52,249.33333 226.52,249.92 C226.52,250.773338 226.753331,251.433331 227.22,251.9 C227.686669,252.366669 228.266663,252.733332 228.96,253 C229.653337,253.266668 230.413329,253.499999 231.24,253.7 C232.066671,253.900001 232.826663,254.179998 233.52,254.54 C234.213337,254.900002 234.793331,255.399997 235.26,256.04 C235.726669,256.680003 235.96,257.559994 235.96,258.68 C235.96,259.453337 235.793335,260.21333 235.46,260.96 C235.126665,261.70667 234.64667,262.379997 234.02,262.98 C233.39333,263.580003 232.640004,264.046665 231.76,264.38 C230.879996,264.713335 229.880006,264.88 228.76,264.88 C227.533327,264.88 226.506671,264.760001 225.68,264.52 C224.853329,264.279999 224.160003,264.000002 223.6,263.68 C223.760001,263.333332 223.926666,262.860003 224.1,262.26 C224.273334,261.659997 224.36,261.160002 224.36,260.76 L224.84,260.76 Z M108.5,141.5 L216.75,142 L108.5,141.5 Z M79,282 L246.96,282 L79,282 Z M198,85 L247,85 L198,85 Z M246.96,93 L246.96,275 L246.96,93 Z M78.96,132 L78.96,275 L78.96,132 Z M108.5,166.5 L216.75,167 L108.5,166.5 Z M108.5,192 L216.75,192.5 L108.5,192 Z M108.5,217.5 L216.75,218 L108.5,217.5 Z" id="Combined-Shape"></path>
        </g>
    </g>
</svg>