<?xml version="1.0" encoding="UTF-8"?>
<svg width="300px" height="282px" viewBox="0 0 300 282" version="1.1" xmlns="http://www.w3.org/2000/svg" xmlns:xlink="http://www.w3.org/1999/xlink">
    <!-- Generator: Sketch 52.2 (67145) - http://www.bohemiancoding.com/sketch -->
    <title>sos</title>
    <desc>Created with Sketch.</desc>
    <defs>
        <path d="M96.9999987,281.368022 C40.3127861,259.953143 0,205.184349 0,141 C0,76.8156505 40.3127861,22.0468567 96.9999987,0.631978112 L97,281.368032 Z M203.000001,0.631978112 C259.687214,22.0468567 300,76.8156505 300,141 C300,205.184349 259.687214,259.953143 203.000001,281.368022 L203,0.631968323 Z M73.1054688,107.408203 C65.9960582,101.984999 58.3398848,99.2734375 50.1367188,99.2734375 C40.7030778,99.2734375 33.308946,101.76853 27.9541016,106.758789 C22.5992571,111.749048 19.921875,118.7786 19.921875,127.847656 C19.921875,135.230506 22.1321394,141.177712 26.5527344,145.689453 C30.9733294,150.201194 37.8091985,153.778633 47.0605469,156.421875 L59.9121094,160.044922 C70.3027863,162.91603 75.4980469,168.042932 75.4980469,175.425781 C75.4980469,180.848985 73.9030107,185.053045 70.7128906,188.038086 C67.5227705,191.023127 63.0338831,192.515625 57.2460938,192.515625 C47.3567214,192.515625 39.3359683,186.86464 33.1835938,175.5625 L33.1835938,166.470703 L20.3320312,166.470703 L20.3320312,204 L33.1835938,204 L33.1835938,195.455078 C40.839882,202.29105 49.339146,205.708984 58.6816406,205.708984 C68.4798667,205.708984 76.2955438,202.974637 82.1289062,197.505859 C87.9622687,192.037082 90.8789062,184.631557 90.8789062,175.289062 C90.8789062,170.640602 90.2522849,166.425149 88.9990234,162.642578 C87.745762,158.860007 85.0569868,155.282569 80.9326172,151.910156 C76.8082476,148.537744 70.8952208,145.826182 63.1933594,143.775391 L51.09375,140.5625 C45.2148144,139.058586 40.8512512,137.235688 38.0029297,135.09375 C35.1546082,132.951812 33.7304688,129.830099 33.7304688,125.728516 C33.7304688,121.44464 35.23436,118.163423 38.2421875,115.884766 C41.250015,113.606108 45.5793988,112.466797 51.2304688,112.466797 C60.4818171,112.466797 67.7734108,116.477173 73.1054688,124.498047 L73.1054688,131.607422 L85.6835938,131.607422 L85.6835938,100.367188 L73.1054688,100.367188 L73.1054688,107.408203 Z M262.105469,107.408203 C254.996058,101.984999 247.339885,99.2734375 239.136719,99.2734375 C229.703078,99.2734375 222.308946,101.76853 216.954102,106.758789 C211.599257,111.749048 208.921875,118.7786 208.921875,127.847656 C208.921875,135.230506 211.132139,141.177712 215.552734,145.689453 C219.973329,150.201194 226.809199,153.778633 236.060547,156.421875 L248.912109,160.044922 C259.302786,162.91603 264.498047,168.042932 264.498047,175.425781 C264.498047,180.848985 262.903011,185.053045 259.712891,188.038086 C256.522771,191.023127 252.033883,192.515625 246.246094,192.515625 C236.356721,192.515625 228.335968,186.86464 222.183594,175.5625 L222.183594,166.470703 L209.332031,166.470703 L209.332031,204 L222.183594,204 L222.183594,195.455078 C229.839882,202.29105 238.339146,205.708984 247.681641,205.708984 C257.479867,205.708984 265.295544,202.974637 271.128906,197.505859 C276.962269,192.037082 279.878906,184.631557 279.878906,175.289062 C279.878906,170.640602 279.252285,166.425149 277.999023,162.642578 C276.745762,158.860007 274.056987,155.282569 269.932617,151.910156 C265.808248,148.537744 259.895221,145.826182 252.193359,143.775391 L240.09375,140.5625 C234.214814,139.058586 229.851251,137.235688 227.00293,135.09375 C224.154608,132.951812 222.730469,129.830099 222.730469,125.728516 C222.730469,121.44464 224.23436,118.163423 227.242188,115.884766 C230.250015,113.606108 234.579399,112.466797 240.230469,112.466797 C249.481817,112.466797 256.773411,116.477173 262.105469,124.498047 L262.105469,131.607422 L274.683594,131.607422 L274.683594,100.367188 L262.105469,100.367188 L262.105469,107.408203 Z" id="path-1"></path>
    </defs>
    <g id="Page-6" stroke="none" stroke-width="1" fill="none" fill-rule="evenodd">
        <g id="sos">
            <g id="Group">
                <mask id="mask-2" fill="white">
                    <use xlink:href="#path-1"></use>
                </mask>
                <use id="Combined-Shape" fill="#D8D8D8" xlink:href="#path-1"></use>
            </g>
            <text id="O" fill="#000000" font-family="Rockwell-Regular, Rockwell" font-size="120" font-weight="normal">
                <tspan x="98" y="154">O</tspan>
            </text>
            <text id="g" fill="#000000" font-family="Rockwell-Regular, Rockwell" font-size="60" font-weight="normal">
                <tspan x="132" y="41">g</tspan>
            </text>
            <text id="g" fill="#000000" font-family="Rockwell-Regular, Rockwell" font-size="60" font-weight="normal">
                <tspan x="132" y="264">g</tspan>
            </text>
            <text id="a" fill="#000000" font-family="Rockwell-Regular, Rockwell" font-size="60" font-weight="normal">
                <tspan x="132" y="124">a</tspan>
            </text>
            <text id="n" fill="#000000" font-family="Rockwell-Regular, Rockwell" font-size="60" font-weight="normal">
                <tspan x="132" y="198">n</tspan>
            </text>
        </g>
    </g>
</svg>